<svg id="mermaid-ba0766c5-3c1c-483a-af27-07bc60faae9b" width="1892.14208984375" xmlns="http://www.w3.org/2000/svg" class="flowchart" style="max-width: 1828.14208984375px;" viewBox="-28 -28 1892.14208984375 881" role="graphics-document document" aria-roledescription="flowchart-v2" xmlns:xlink="http://www.w3.org/1999/xlink" height="881"><rect x="-28" y="-28" width="1892.14208984375" height="881" fill="#ffffff"/><style>#mermaid-ba0766c5-3c1c-483a-af27-07bc60faae9b{font-family:ui-sans-serif,-apple-system,BlinkMacSystemFont,"Segoe UI Variable Display","Segoe UI",Helvetica,"Apple Color Emoji","Noto Sans Arabic","Noto Sans Hebrew",Arial,sans-serif,"Segoe UI Emoji","Segoe UI Symbol";font-size:16px;fill:#000000;}@keyframes edge-animation-frame{from{stroke-dashoffset:0;}}@keyframes dash{to{stroke-dashoffset:0;}}#mermaid-ba0766c5-3c1c-483a-af27-07bc60faae9b .edge-animation-slow{stroke-dasharray:9,5!important;stroke-dashoffset:900;animation:dash 50s linear infinite;stroke-linecap:round;}#mermaid-ba0766c5-3c1c-483a-af27-07bc60faae9b .edge-animation-fast{stroke-dasharray:9,5!important;stroke-dashoffset:900;animation:dash 20s linear infinite;stroke-linecap:round;}#mermaid-ba0766c5-3c1c-483a-af27-07bc60faae9b .error-icon{fill:#552222;}#mermaid-ba0766c5-3c1c-483a-af27-07bc60faae9b .error-text{fill:#552222;stroke:#552222;}#mermaid-ba0766c5-3c1c-483a-af27-07bc60faae9b .edge-thickness-normal{stroke-width:1px;}#mermaid-ba0766c5-3c1c-483a-af27-07bc60faae9b .edge-thickness-thick{stroke-width:3.5px;}#mermaid-ba0766c5-3c1c-483a-af27-07bc60faae9b .edge-pattern-solid{stroke-dasharray:0;}#mermaid-ba0766c5-3c1c-483a-af27-07bc60faae9b .edge-thickness-invisible{stroke-width:0;fill:none;}#mermaid-ba0766c5-3c1c-483a-af27-07bc60faae9b .edge-pattern-dashed{stroke-dasharray:3;}#mermaid-ba0766c5-3c1c-483a-af27-07bc60faae9b .edge-pattern-dotted{stroke-dasharray:2;}#mermaid-ba0766c5-3c1c-483a-af27-07bc60faae9b .marker{fill:#666;stroke:#666;}#mermaid-ba0766c5-3c1c-483a-af27-07bc60faae9b .marker.cross{stroke:#666;}#mermaid-ba0766c5-3c1c-483a-af27-07bc60faae9b svg{font-family:ui-sans-serif,-apple-system,BlinkMacSystemFont,"Segoe UI Variable Display","Segoe UI",Helvetica,"Apple Color Emoji","Noto Sans Arabic","Noto Sans Hebrew",Arial,sans-serif,"Segoe UI Emoji","Segoe UI Symbol";font-size:16px;}#mermaid-ba0766c5-3c1c-483a-af27-07bc60faae9b p{margin:0;}#mermaid-ba0766c5-3c1c-483a-af27-07bc60faae9b .label{font-family:ui-sans-serif,-apple-system,BlinkMacSystemFont,"Segoe UI Variable Display","Segoe UI",Helvetica,"Apple Color Emoji","Noto Sans Arabic","Noto Sans Hebrew",Arial,sans-serif,"Segoe UI Emoji","Segoe UI Symbol";color:#000000;}#mermaid-ba0766c5-3c1c-483a-af27-07bc60faae9b .cluster-label text{fill:#333;}#mermaid-ba0766c5-3c1c-483a-af27-07bc60faae9b .cluster-label span{color:#333;}#mermaid-ba0766c5-3c1c-483a-af27-07bc60faae9b .cluster-label span p{background-color:transparent;}#mermaid-ba0766c5-3c1c-483a-af27-07bc60faae9b .label text,#mermaid-ba0766c5-3c1c-483a-af27-07bc60faae9b span{fill:#000000;color:#000000;}#mermaid-ba0766c5-3c1c-483a-af27-07bc60faae9b .node rect,#mermaid-ba0766c5-3c1c-483a-af27-07bc60faae9b .node circle,#mermaid-ba0766c5-3c1c-483a-af27-07bc60faae9b .node ellipse,#mermaid-ba0766c5-3c1c-483a-af27-07bc60faae9b .node polygon,#mermaid-ba0766c5-3c1c-483a-af27-07bc60faae9b .node path{fill:#eee;stroke:#999;stroke-width:1px;}#mermaid-ba0766c5-3c1c-483a-af27-07bc60faae9b .rough-node .label text,#mermaid-ba0766c5-3c1c-483a-af27-07bc60faae9b .node .label text,#mermaid-ba0766c5-3c1c-483a-af27-07bc60faae9b .image-shape .label,#mermaid-ba0766c5-3c1c-483a-af27-07bc60faae9b .icon-shape .label{text-anchor:middle;}#mermaid-ba0766c5-3c1c-483a-af27-07bc60faae9b .node .katex path{fill:#000;stroke:#000;stroke-width:1px;}#mermaid-ba0766c5-3c1c-483a-af27-07bc60faae9b .rough-node .label,#mermaid-ba0766c5-3c1c-483a-af27-07bc60faae9b .node .label,#mermaid-ba0766c5-3c1c-483a-af27-07bc60faae9b .image-shape .label,#mermaid-ba0766c5-3c1c-483a-af27-07bc60faae9b .icon-shape .label{text-align:center;}#mermaid-ba0766c5-3c1c-483a-af27-07bc60faae9b .node.clickable{cursor:pointer;}#mermaid-ba0766c5-3c1c-483a-af27-07bc60faae9b .root .anchor path{fill:#666!important;stroke-width:0;stroke:#666;}#mermaid-ba0766c5-3c1c-483a-af27-07bc60faae9b .arrowheadPath{fill:#333333;}#mermaid-ba0766c5-3c1c-483a-af27-07bc60faae9b .edgePath .path{stroke:#666;stroke-width:2.0px;}#mermaid-ba0766c5-3c1c-483a-af27-07bc60faae9b .flowchart-link{stroke:#666;fill:none;}#mermaid-ba0766c5-3c1c-483a-af27-07bc60faae9b .edgeLabel{background-color:white;text-align:center;}#mermaid-ba0766c5-3c1c-483a-af27-07bc60faae9b .edgeLabel p{background-color:white;}#mermaid-ba0766c5-3c1c-483a-af27-07bc60faae9b .edgeLabel rect{opacity:0.5;background-color:white;fill:white;}#mermaid-ba0766c5-3c1c-483a-af27-07bc60faae9b .labelBkg{background-color:rgba(255, 255, 255, 0.5);}#mermaid-ba0766c5-3c1c-483a-af27-07bc60faae9b .cluster rect{fill:hsl(0, 0%, 98.9215686275%);stroke:#707070;stroke-width:1px;}#mermaid-ba0766c5-3c1c-483a-af27-07bc60faae9b .cluster text{fill:#333;}#mermaid-ba0766c5-3c1c-483a-af27-07bc60faae9b .cluster span{color:#333;}#mermaid-ba0766c5-3c1c-483a-af27-07bc60faae9b div.mermaidTooltip{position:absolute;text-align:center;max-width:200px;padding:2px;font-family:ui-sans-serif,-apple-system,BlinkMacSystemFont,"Segoe UI Variable Display","Segoe UI",Helvetica,"Apple Color Emoji","Noto Sans Arabic","Noto Sans Hebrew",Arial,sans-serif,"Segoe UI Emoji","Segoe UI Symbol";font-size:12px;background:hsl(-160, 0%, 93.3333333333%);border:1px solid #707070;border-radius:2px;pointer-events:none;z-index:100;}#mermaid-ba0766c5-3c1c-483a-af27-07bc60faae9b .flowchartTitleText{text-anchor:middle;font-size:18px;fill:#000000;}#mermaid-ba0766c5-3c1c-483a-af27-07bc60faae9b rect.text{fill:none;stroke-width:0;}#mermaid-ba0766c5-3c1c-483a-af27-07bc60faae9b .icon-shape,#mermaid-ba0766c5-3c1c-483a-af27-07bc60faae9b .image-shape{background-color:white;text-align:center;}#mermaid-ba0766c5-3c1c-483a-af27-07bc60faae9b .icon-shape p,#mermaid-ba0766c5-3c1c-483a-af27-07bc60faae9b .image-shape p{background-color:white;padding:2px;}#mermaid-ba0766c5-3c1c-483a-af27-07bc60faae9b .icon-shape rect,#mermaid-ba0766c5-3c1c-483a-af27-07bc60faae9b .image-shape rect{opacity:0.5;background-color:white;fill:white;}#mermaid-ba0766c5-3c1c-483a-af27-07bc60faae9b .label-icon{display:inline-block;height:1em;overflow:visible;vertical-align:-0.125em;}#mermaid-ba0766c5-3c1c-483a-af27-07bc60faae9b .node .label-icon path{fill:currentColor;stroke:revert;stroke-width:revert;}#mermaid-ba0766c5-3c1c-483a-af27-07bc60faae9b :root{--mermaid-font-family:"trebuchet ms",verdana,arial,sans-serif;}</style><g><marker id="mermaid-ba0766c5-3c1c-483a-af27-07bc60faae9b_flowchart-v2-pointEnd" class="marker flowchart-v2" viewBox="0 0 10 10" refX="5" refY="5" markerUnits="userSpaceOnUse" markerWidth="8" markerHeight="8" orient="auto"><path d="M 0 0 L 10 5 L 0 10 z" class="arrowMarkerPath" style="stroke-width: 1; stroke-dasharray: 1, 0;"/></marker><marker id="mermaid-ba0766c5-3c1c-483a-af27-07bc60faae9b_flowchart-v2-pointStart" class="marker flowchart-v2" viewBox="0 0 10 10" refX="4.5" refY="5" markerUnits="userSpaceOnUse" markerWidth="8" markerHeight="8" orient="auto"><path d="M 0 5 L 10 10 L 10 0 z" class="arrowMarkerPath" style="stroke-width: 1; stroke-dasharray: 1, 0;"/></marker><marker id="mermaid-ba0766c5-3c1c-483a-af27-07bc60faae9b_flowchart-v2-circleEnd" class="marker flowchart-v2" viewBox="0 0 10 10" refX="11" refY="5" markerUnits="userSpaceOnUse" markerWidth="11" markerHeight="11" orient="auto"><circle cx="5" cy="5" r="5" class="arrowMarkerPath" style="stroke-width: 1; stroke-dasharray: 1, 0;"/></marker><marker id="mermaid-ba0766c5-3c1c-483a-af27-07bc60faae9b_flowchart-v2-circleStart" class="marker flowchart-v2" viewBox="0 0 10 10" refX="-1" refY="5" markerUnits="userSpaceOnUse" markerWidth="11" markerHeight="11" orient="auto"><circle cx="5" cy="5" r="5" class="arrowMarkerPath" style="stroke-width: 1; stroke-dasharray: 1, 0;"/></marker><marker id="mermaid-ba0766c5-3c1c-483a-af27-07bc60faae9b_flowchart-v2-crossEnd" class="marker cross flowchart-v2" viewBox="0 0 11 11" refX="12" refY="5.2" markerUnits="userSpaceOnUse" markerWidth="11" markerHeight="11" orient="auto"><path d="M 1,1 l 9,9 M 10,1 l -9,9" class="arrowMarkerPath" style="stroke-width: 2; stroke-dasharray: 1, 0;"/></marker><marker id="mermaid-ba0766c5-3c1c-483a-af27-07bc60faae9b_flowchart-v2-crossStart" class="marker cross flowchart-v2" viewBox="0 0 11 11" refX="-1" refY="5.2" markerUnits="userSpaceOnUse" markerWidth="11" markerHeight="11" orient="auto"><path d="M 1,1 l 9,9 M 10,1 l -9,9" class="arrowMarkerPath" style="stroke-width: 2; stroke-dasharray: 1, 0;"/></marker></g><g class="subgraphs"/><g class="nodes"><g class="node default" id="flowchart-HOME-0" transform="translate(1200.4999999999998, 75)"><rect class="basic label-container" style="" x="-130" y="-63" width="260" height="126"/><g class="label" style="" transform="translate(-100, -48)"><rect/><foreignObject width="200" height="96"><div xmlns="http://www.w3.org/1999/xhtml" style="display: table; white-space: break-spaces; line-height: 1.5; max-width: 200px; text-align: center; width: 200px;"><span class="nodeLabel"><p>Something — единая главная<br />Что нового · Что обсуждают · Что купить</p></span></div></foreignObject></g></g><g class="node default" id="flowchart-SHOP-2" transform="translate(1125.9471257020145, 597.5)"><rect class="basic label-container" style="" x="-57.5390625" y="-39" width="115.078125" height="78"/><g class="label" style="" transform="translate(-27.5390625, -24)"><rect/><foreignObject width="55.078125" height="48"><div xmlns="http://www.w3.org/1999/xhtml" style="display: table-cell; white-space: nowrap; line-height: 1.5; max-width: 200px; text-align: center;"><span class="nodeLabel"><p>SHOP<br />Shopify</p></span></div></foreignObject></g></g><g class="node default" id="flowchart-COMMUNITY-4" transform="translate(706, 241.5)"><rect class="basic label-container" style="" x="-130" y="-51" width="260" height="102"/><g class="label" style="" transform="translate(-100, -36)"><rect/><foreignObject width="200" height="72"><div xmlns="http://www.w3.org/1999/xhtml" style="display: table; white-space: break-spaces; line-height: 1.5; max-width: 200px; text-align: center; width: 200px;"><span class="nodeLabel"><p>COMMUNITY<br />Circle или другой no-code движок</p></span></div></foreignObject></g></g><g class="node default" id="flowchart-EVENTS-6" transform="translate(1298.793341398398, 245.5)"><rect class="basic label-container" style="" x="-96.1875" y="-39" width="192.375" height="78"/><g class="label" style="" transform="translate(-66.1875, -24)"><rect/><foreignObject width="132.375" height="48"><div xmlns="http://www.w3.org/1999/xhtml" style="display: table-cell; white-space: nowrap; line-height: 1.5; max-width: 200px; text-align: center;"><span class="nodeLabel"><p>EVENTS<br />Онлайн и офлайн</p></span></div></foreignObject></g></g><g class="node default" id="flowchart-PEOPLE-8" transform="translate(1559.9808413983988, 241.5)"><rect class="basic label-container" style="" x="-130" y="-51" width="260" height="102"/><g class="label" style="" transform="translate(-100, -36)"><rect/><foreignObject width="200" height="72"><div xmlns="http://www.w3.org/1999/xhtml" style="display: table; white-space: break-spaces; line-height: 1.5; max-width: 200px; text-align: center; width: 200px;"><span class="nodeLabel"><p>PEOPLE<br />Участники · Кураторы · Дизайнеры</p></span></div></foreignObject></g></g><g class="node default" id="flowchart-BRANDS-10" transform="translate(772.6643132020145, 786)"><rect class="basic label-container" style="" x="-59.28125" y="-27" width="118.5625" height="54"/><g class="label" style="" transform="translate(-29.28125, -12)"><rect/><foreignObject width="58.5625" height="24"><div xmlns="http://www.w3.org/1999/xhtml" style="display: table-cell; white-space: nowrap; line-height: 1.5; max-width: 200px; text-align: center;"><span class="nodeLabel"><p>Бренды</p></span></div></foreignObject></g></g><g class="node default" id="flowchart-COLLECTIONS-12" transform="translate(938.1877507020145, 786)"><rect class="basic label-container" style="" x="-71.2421875" y="-27" width="142.484375" height="54"/><g class="label" style="" transform="translate(-41.2421875, -12)"><rect/><foreignObject width="82.484375" height="24"><div xmlns="http://www.w3.org/1999/xhtml" style="display: table-cell; white-space: nowrap; line-height: 1.5; max-width: 200px; text-align: center;"><span class="nodeLabel"><p>Коллекции</p></span></div></foreignObject></g></g><g class="node default" id="flowchart-PRODUCTS-14" transform="translate(1102.5705632020145, 786)"><rect class="basic label-container" style="" x="-58.140625" y="-27" width="116.28125" height="54"/><g class="label" style="" transform="translate(-28.140625, -12)"><rect/><foreignObject width="56.28125" height="24"><div xmlns="http://www.w3.org/1999/xhtml" style="display: table-cell; white-space: nowrap; line-height: 1.5; max-width: 200px; text-align: center;"><span class="nodeLabel"><p>Товары</p></span></div></foreignObject></g></g><g class="node default" id="flowchart-CHECKOUT-16" transform="translate(1325.3518132020145, 786)"><rect class="basic label-container" style="" x="-129.640625" y="-27" width="259.28125" height="54"/><g class="label" style="" transform="translate(-99.640625, -12)"><rect/><foreignObject width="199.28125" height="24"><div xmlns="http://www.w3.org/1999/xhtml" style="display: table-cell; white-space: nowrap; line-height: 1.5; max-width: 200px; text-align: center;"><span class="nodeLabel"><p>Корзина · Оплата · Заказы</p></span></div></foreignObject></g></g><g class="node default" id="flowchart-LOOKS-18" transform="translate(142, 412)"><rect class="basic label-container" style="" x="-130" y="-51" width="260" height="102"/><g class="label" style="" transform="translate(-100, -36)"><rect/><foreignObject width="200" height="72"><div xmlns="http://www.w3.org/1999/xhtml" style="display: table; white-space: break-spaces; line-height: 1.5; max-width: 200px; text-align: center; width: 200px;"><span class="nodeLabel"><p>LOOKS<br />Fit Check · Outfit · Wardrobe Rescue</p></span></div></foreignObject></g></g><g class="node default" id="flowchart-DISCUSS-20" transform="translate(436.9999999999999, 408)"><rect class="basic label-container" style="" x="-130" y="-63" width="260" height="126"/><g class="label" style="" transform="translate(-100, -48)"><rect/><foreignObject width="200" height="96"><div xmlns="http://www.w3.org/1999/xhtml" style="display: table; white-space: break-spaces; line-height: 1.5; max-width: 200px; text-align: center; width: 200px;"><span class="nodeLabel"><p>QUESTIONS &amp; DISCUSSIONS<br />Советы · A/B · Worth it? · Культура</p></span></div></foreignObject></g></g><g class="node default" id="flowchart-DROPS-22" transform="translate(732, 408)"><rect class="basic label-container" style="" x="-130" y="-51" width="260" height="102"/><g class="label" style="" transform="translate(-100, -36)"><rect/><foreignObject width="200" height="72"><div xmlns="http://www.w3.org/1999/xhtml" style="display: table; white-space: break-spaces; line-height: 1.5; max-width: 200px; text-align: center; width: 200px;"><span class="nodeLabel"><p>DROPS &amp; DESIGNERS<br />Новые коллекции · AMA · Голосования</p></span></div></foreignObject></g></g><g class="node default" id="flowchart-CHAT-24" transform="translate(1027, 396)"><rect class="basic label-container" style="" x="-130" y="-51" width="260" height="102"/><g class="label" style="" transform="translate(-100, -36)"><rect/><foreignObject width="200" height="72"><div xmlns="http://www.w3.org/1999/xhtml" style="display: table; white-space: break-spaces; line-height: 1.5; max-width: 200px; text-align: center; width: 200px;"><span class="nodeLabel"><p>CHAT<br />Быстрое неформальное общение</p></span></div></foreignObject></g></g><g class="node default" id="flowchart-LIVE-26" transform="translate(1366.3566415188927, 408)"><rect class="basic label-container" style="" x="-130" y="-51" width="260" height="102"/><g class="label" style="" transform="translate(-100, -36)"><rect/><foreignObject width="200" height="72"><div xmlns="http://www.w3.org/1999/xhtml" style="display: table; white-space: break-spaces; line-height: 1.5; max-width: 200px; text-align: center; width: 200px;"><span class="nodeLabel"><p>Live shopping<br />Designer talks · Style battles</p></span></div></foreignObject></g></g><g class="node default" id="flowchart-OFFLINE-28" transform="translate(1709.8295469902628, 384)"><rect class="basic label-container" style="" x="-114.3125" y="-39" width="228.625" height="78"/><g class="label" style="" transform="translate(-84.3125, -24)"><rect/><foreignObject width="168.625" height="48"><div xmlns="http://www.w3.org/1999/xhtml" style="display: table-cell; white-space: nowrap; line-height: 1.5; max-width: 200px; text-align: center;"><span class="nodeLabel"><p>Pop-ups · Swap parties<br />Примерки · Встречи</p></span></div></foreignObject></g></g></g><g class="edges edgePaths"><path d="M1174.5,138L1174.5,155.25C1174.5,172.5,1174.5,207,1174.5,252C1174.5,297,1174.5,352.5,1174.5,392.833C1174.5,433.167,1174.5,458.333,1174.138,471.388C1173.776,484.443,1173.052,485.386,1172.219,486.219C1171.386,487.052,1170.443,487.776,1163.546,488.138C1156.649,488.5,1143.798,488.5,1136.901,488.862C1130.004,489.224,1129.062,489.948,1128.228,490.781C1127.395,491.614,1126.671,492.557,1126.309,503.195C1125.947,513.833,1125.947,534.167,1125.947,544.333L1125.947,554.5" id="L_HOME_SHOP_0_0" class="edge-thickness-normal edge-pattern-solid edge-thickness-normal edge-pattern-solid flowchart-link" style="" marker-end="url(#mermaid-ba0766c5-3c1c-483a-af27-07bc60faae9b_flowchart-v2-pointEnd)"/><path d="M1122.5,138L1122.5,140.083C1122.5,142.167,1122.5,146.333,1122.138,148.888C1121.776,151.443,1121.052,152.386,1120.219,153.219C1119.386,154.052,1118.443,154.776,1050.221,155.138C982,155.5,846.5,155.5,778.279,155.862C710.057,156.224,709.114,156.948,708.281,157.781C707.448,158.614,706.724,159.557,706.362,164.362C706,169.167,706,177.833,706,182.167L706,186.5" id="L_HOME_COMMUNITY_0_0" class="edge-thickness-normal edge-pattern-solid edge-thickness-normal edge-pattern-solid flowchart-link" style="" marker-end="url(#mermaid-ba0766c5-3c1c-483a-af27-07bc60faae9b_flowchart-v2-pointEnd)"/><path d="M1226.5,138L1226.5,143C1226.5,148,1226.5,158,1226.862,163.471C1227.224,168.943,1227.948,169.886,1228.781,170.719C1229.614,171.552,1230.557,172.276,1241.411,172.638C1252.264,173,1273.029,173,1283.883,173.362C1294.736,173.724,1295.679,174.448,1296.512,175.281C1297.346,176.114,1298.069,177.057,1298.431,181.612C1298.793,186.167,1298.793,194.333,1298.793,198.417L1298.793,202.5" id="L_HOME_EVENTS_0_0" class="edge-thickness-normal edge-pattern-solid edge-thickness-normal edge-pattern-solid flowchart-link" style="" marker-end="url(#mermaid-ba0766c5-3c1c-483a-af27-07bc60faae9b_flowchart-v2-pointEnd)"/><path d="M1278.5,138L1278.5,140.083C1278.5,142.167,1278.5,146.333,1278.862,148.888C1279.224,151.443,1279.948,152.386,1280.781,153.219C1281.614,154.052,1282.557,154.776,1328.275,155.138C1373.994,155.5,1464.487,155.5,1510.205,155.862C1555.924,156.224,1556.866,156.948,1557.7,157.781C1558.533,158.614,1559.257,159.557,1559.619,164.362C1559.981,169.167,1559.981,177.833,1559.981,182.167L1559.981,186.5" id="L_HOME_PEOPLE_0_0" class="edge-thickness-normal edge-pattern-solid edge-thickness-normal edge-pattern-solid flowchart-link" style="" marker-end="url(#mermaid-ba0766c5-3c1c-483a-af27-07bc60faae9b_flowchart-v2-pointEnd)"/><path d="M1091.424,636.5L1091.424,644.417C1091.424,652.333,1091.424,668.167,1091.062,676.555C1090.7,684.943,1089.976,685.886,1089.143,686.719C1088.309,687.552,1087.366,688.276,1035.435,688.638C983.504,689,880.584,689,828.653,689.362C776.722,689.724,775.779,690.448,774.945,691.281C774.112,692.114,773.388,693.057,773.026,703.695C772.664,714.333,772.664,734.667,772.664,744.833L772.664,755" id="L_SHOP_BRANDS_0_0" class="edge-thickness-normal edge-pattern-solid edge-thickness-normal edge-pattern-solid flowchart-link" style="" marker-end="url(#mermaid-ba0766c5-3c1c-483a-af27-07bc60faae9b_flowchart-v2-pointEnd)"/><path d="M1114.439,636.5L1114.439,638.583C1114.439,640.667,1114.439,644.833,1114.077,647.388C1113.715,649.943,1112.992,650.886,1112.158,651.719C1111.325,652.552,1110.382,653.276,1086.16,653.638C1061.938,654,1014.437,654,990.214,654.362C965.992,654.724,965.05,655.448,964.216,656.281C963.383,657.114,962.659,658.057,962.297,674.529C961.935,691,961.935,723,961.935,739L961.935,755" id="L_SHOP_COLLECTIONS_0_0" class="edge-thickness-normal edge-pattern-solid edge-thickness-normal edge-pattern-solid flowchart-link" style="" marker-end="url(#mermaid-ba0766c5-3c1c-483a-af27-07bc60faae9b_flowchart-v2-pointEnd)"/><path d="M1137.455,636.5L1137.455,755" id="L_SHOP_PRODUCTS_0_0" class="edge-thickness-normal edge-pattern-solid edge-thickness-normal edge-pattern-solid flowchart-link" style="" marker-end="url(#mermaid-ba0766c5-3c1c-483a-af27-07bc60faae9b_flowchart-v2-pointEnd)"/><path d="M1160.471,636.5L1160.471,638.583C1160.471,640.667,1160.471,644.833,1160.832,647.388C1161.194,649.943,1161.918,650.886,1162.752,651.719C1163.585,652.552,1164.528,653.276,1183.61,653.638C1202.693,654,1239.916,654,1258.998,654.362C1278.081,654.724,1279.024,655.448,1279.857,656.281C1280.691,657.114,1281.414,658.057,1281.776,674.529C1282.138,691,1282.138,723,1282.138,739L1282.138,755" id="L_SHOP_CHECKOUT_0_0" class="edge-thickness-normal edge-pattern-solid edge-thickness-normal edge-pattern-solid flowchart-link" style="" marker-end="url(#mermaid-ba0766c5-3c1c-483a-af27-07bc60faae9b_flowchart-v2-pointEnd)"/><path d="M628,292.5L628,294.583C628,296.667,628,300.833,627.638,303.388C627.276,305.943,626.552,306.886,625.719,307.719C624.886,308.552,623.943,309.276,544.138,309.638C464.333,310,305.667,310,225.862,310.362C146.057,310.724,145.114,311.448,144.281,312.281C143.448,313.114,142.724,314.057,142.362,321.529C142,329,142,343,142,350L142,357" id="L_COMMUNITY_LOOKS_0_0" class="edge-thickness-normal edge-pattern-solid edge-thickness-normal edge-pattern-solid flowchart-link" style="" marker-end="url(#mermaid-ba0766c5-3c1c-483a-af27-07bc60faae9b_flowchart-v2-pointEnd)"/><path d="M680,292.5L680,297.5C680,302.5,680,312.5,679.638,317.971C679.276,323.443,678.552,324.386,677.719,325.219C676.886,326.052,675.943,326.776,636.638,327.138C597.333,327.5,519.667,327.5,480.362,327.862C441.057,328.224,440.114,328.948,439.281,329.781C438.448,330.614,437.724,331.557,437.362,333.445C437,335.333,437,338.167,437,339.583L437,341" id="L_COMMUNITY_DISCUSS_0_0" class="edge-thickness-normal edge-pattern-solid edge-thickness-normal edge-pattern-solid flowchart-link" style="" marker-end="url(#mermaid-ba0766c5-3c1c-483a-af27-07bc60faae9b_flowchart-v2-pointEnd)"/><path d="M732,292.5L732,353" id="L_COMMUNITY_DROPS_0_0" class="edge-thickness-normal edge-pattern-solid edge-thickness-normal edge-pattern-solid flowchart-link" style="" marker-end="url(#mermaid-ba0766c5-3c1c-483a-af27-07bc60faae9b_flowchart-v2-pointEnd)"/><path d="M784,292.5L784,294.583C784,296.667,784,300.833,784.362,303.388C784.724,305.943,785.448,306.886,786.281,307.719C787.114,308.552,788.057,309.276,827.362,309.638C866.667,310,944.333,310,983.638,310.362C1022.943,310.724,1023.886,311.448,1024.719,312.281C1025.552,313.114,1026.276,314.057,1026.638,318.862C1027,323.667,1027,332.333,1027,336.667L1027,341" id="L_COMMUNITY_CHAT_0_0" class="edge-thickness-normal edge-pattern-solid edge-thickness-normal edge-pattern-solid flowchart-link" style="" marker-end="url(#mermaid-ba0766c5-3c1c-483a-af27-07bc60faae9b_flowchart-v2-pointEnd)"/><path d="M1266.731,284.5L1266.731,290.833C1266.731,297.167,1266.731,309.833,1267.093,316.638C1267.455,323.443,1268.179,324.386,1269.012,325.219C1269.845,326.052,1270.788,326.776,1286.197,327.138C1301.606,327.5,1331.481,327.5,1346.89,327.862C1362.299,328.224,1363.242,328.948,1364.076,329.781C1364.909,330.614,1365.633,331.557,1365.995,335.445C1366.357,339.333,1366.357,346.167,1366.357,349.583L1366.357,353" id="L_EVENTS_LIVE_0_0" class="edge-thickness-normal edge-pattern-solid edge-thickness-normal edge-pattern-solid flowchart-link" style="" marker-end="url(#mermaid-ba0766c5-3c1c-483a-af27-07bc60faae9b_flowchart-v2-pointEnd)"/><path d="M1330.856,284.5L1330.856,287.917C1330.856,291.333,1330.856,298.167,1331.218,302.055C1331.58,305.943,1332.304,306.886,1333.137,307.719C1333.97,308.552,1334.913,309.276,1396.88,309.638C1458.847,310,1581.838,310,1643.805,310.362C1705.772,310.724,1706.715,311.448,1707.548,312.281C1708.382,313.114,1709.106,314.057,1709.468,318.862C1709.83,323.667,1709.83,332.333,1709.83,336.667L1709.83,341" id="L_EVENTS_OFFLINE_0_0" class="edge-thickness-normal edge-pattern-solid edge-thickness-normal edge-pattern-solid flowchart-link" style="" marker-end="url(#mermaid-ba0766c5-3c1c-483a-af27-07bc60faae9b_flowchart-v2-pointEnd)"/><path d="M185.333,463L185.333,472.25C185.333,481.5,185.333,500,185.695,509.721C186.057,519.443,186.781,520.386,187.614,521.219C188.448,522.052,189.391,522.776,262.261,523.138C335.131,523.5,479.929,523.5,552.8,523.862C625.67,524.224,626.613,524.948,627.446,525.781C628.279,526.614,629.003,527.557,629.365,556.862C629.727,586.167,629.727,643.833,630.089,673.138C630.451,702.443,631.175,703.386,632.008,704.219C632.842,705.052,633.784,705.776,709.458,706.138C785.132,706.5,935.537,706.5,1011.211,706.862C1086.885,707.224,1087.828,707.948,1088.661,708.781C1089.495,709.614,1090.219,710.557,1090.581,718.279C1090.942,726,1090.942,740.5,1090.942,747.75L1090.942,755" id="L_LOOKS_PRODUCTS_0_0" class="edge-thickness-normal edge-pattern-dotted edge-thickness-normal edge-pattern-solid flowchart-link" style="" marker-end="url(#mermaid-ba0766c5-3c1c-483a-af27-07bc60faae9b_flowchart-v2-pointEnd)"/><path d="M437,471L437,476C437,481,437,491,437.362,496.471C437.724,501.943,438.448,502.886,439.281,503.719C440.114,504.552,441.057,505.276,496.186,505.638C551.314,506,660.628,506,715.756,506.362C770.885,506.724,771.827,507.448,772.661,508.281C773.494,509.114,774.218,510.057,774.58,536.445C774.942,562.833,774.942,614.667,775.304,641.055C775.666,667.443,776.39,668.386,777.223,669.219C778.056,670.052,778.999,670.776,834.347,671.138C889.694,671.5,999.446,671.5,1054.794,671.862C1110.141,672.224,1111.084,672.948,1111.918,673.781C1112.751,674.614,1113.475,675.557,1113.837,689.112C1114.199,702.667,1114.199,728.833,1114.199,741.917L1114.199,755" id="L_DISCUSS_PRODUCTS_0_0" class="edge-thickness-normal edge-pattern-dotted edge-thickness-normal edge-pattern-solid flowchart-link" style="" marker-end="url(#mermaid-ba0766c5-3c1c-483a-af27-07bc60faae9b_flowchart-v2-pointEnd)"/><path d="M732,459L732,463.083C732,467.167,732,475.333,732.362,479.888C732.724,484.443,733.448,485.386,734.281,486.219C735.114,487.052,736.057,487.776,770.176,488.138C804.296,488.5,871.591,488.5,905.71,488.862C939.83,489.224,940.772,489.948,941.606,490.781C942.439,491.614,943.163,492.557,943.525,530.612C943.887,568.667,943.887,643.833,943.525,681.888C943.163,719.943,942.439,720.886,941.606,721.719C940.772,722.552,939.83,723.276,936.117,723.638C932.405,724,925.923,724,922.21,724.362C918.498,724.724,917.555,725.448,916.721,726.281C915.888,727.114,915.164,728.057,914.802,732.862C914.44,737.667,914.44,746.333,914.44,750.667L914.44,755" id="L_DROPS_COLLECTIONS_0_0" class="edge-thickness-normal edge-pattern-dotted edge-thickness-normal edge-pattern-solid flowchart-link" style="" marker-end="url(#mermaid-ba0766c5-3c1c-483a-af27-07bc60faae9b_flowchart-v2-pointEnd)"/><path d="M1067.686,759L1067.686,756.917C1067.686,754.833,1067.686,750.667,1067.324,748.112C1066.962,745.557,1066.238,744.614,1065.405,743.781C1064.572,742.948,1063.629,742.224,963.19,741.862C862.752,741.5,662.818,741.5,562.379,741.138C461.941,740.776,460.998,740.052,460.164,739.219C459.331,738.386,458.607,737.443,458.245,705.221C457.883,673,457.883,609.5,457.521,577.279C457.16,545.057,456.436,544.114,455.602,543.281C454.769,542.448,453.826,541.724,395.152,541.362C336.478,541,220.072,541,161.398,540.638C102.724,540.276,101.781,539.552,100.948,538.719C100.114,537.886,99.391,536.943,99.029,524.971C98.667,513,98.667,490,98.667,478.5L98.667,467" id="L_PRODUCTS_LOOKS_0_0" class="edge-thickness-normal edge-pattern-dotted edge-thickness-normal edge-pattern-solid flowchart-link" style="" marker-end="url(#mermaid-ba0766c5-3c1c-483a-af27-07bc60faae9b_flowchart-v2-pointEnd)"/><path d="M1366.357,459L1366.357,491.5C1366.357,524,1366.357,589,1366.725,621.5C1367.093,654,1367.829,654,1368.197,670.833C1368.565,687.667,1368.565,721.333,1368.565,738.167L1368.565,755" id="L_LIVE_CHECKOUT_0_0" class="edge-thickness-normal edge-pattern-dotted edge-thickness-normal edge-pattern-solid flowchart-link" style="" marker-end="url(#mermaid-ba0766c5-3c1c-483a-af27-07bc60faae9b_flowchart-v2-pointEnd)"/></g><g class="edgeLabels"><g class="edgeLabel"><g class="label" transform="translate(0, 0)"><foreignObject width="0" height="0"><div xmlns="http://www.w3.org/1999/xhtml" class="labelBkg" style="display: table-cell; white-space: nowrap; line-height: 1.5; max-width: 200px; text-align: center;"><span class="edgeLabel"></span></div></foreignObject></g></g><g class="edgeLabel"><g class="label" transform="translate(0, 0)"><foreignObject width="0" height="0"><div xmlns="http://www.w3.org/1999/xhtml" class="labelBkg" style="display: table-cell; white-space: nowrap; line-height: 1.5; max-width: 200px; text-align: center;"><span class="edgeLabel"></span></div></foreignObject></g></g><g class="edgeLabel"><g class="label" transform="translate(0, 0)"><foreignObject width="0" height="0"><div xmlns="http://www.w3.org/1999/xhtml" class="labelBkg" style="display: table-cell; white-space: nowrap; line-height: 1.5; max-width: 200px; text-align: center;"><span class="edgeLabel"></span></div></foreignObject></g></g><g class="edgeLabel"><g class="label" transform="translate(0, 0)"><foreignObject width="0" height="0"><div xmlns="http://www.w3.org/1999/xhtml" class="labelBkg" style="display: table-cell; white-space: nowrap; line-height: 1.5; max-width: 200px; text-align: center;"><span class="edgeLabel"></span></div></foreignObject></g></g><g class="edgeLabel"><g class="label" transform="translate(0, 0)"><foreignObject width="0" height="0"><div xmlns="http://www.w3.org/1999/xhtml" class="labelBkg" style="display: table-cell; white-space: nowrap; line-height: 1.5; max-width: 200px; text-align: center;"><span class="edgeLabel"></span></div></foreignObject></g></g><g class="edgeLabel"><g class="label" transform="translate(0, 0)"><foreignObject width="0" height="0"><div xmlns="http://www.w3.org/1999/xhtml" class="labelBkg" style="display: table-cell; white-space: nowrap; line-height: 1.5; max-width: 200px; text-align: center;"><span class="edgeLabel"></span></div></foreignObject></g></g><g class="edgeLabel"><g class="label" transform="translate(0, 0)"><foreignObject width="0" height="0"><div xmlns="http://www.w3.org/1999/xhtml" class="labelBkg" style="display: table-cell; white-space: nowrap; line-height: 1.5; max-width: 200px; text-align: center;"><span class="edgeLabel"></span></div></foreignObject></g></g><g class="edgeLabel"><g class="label" transform="translate(0, 0)"><foreignObject width="0" height="0"><div xmlns="http://www.w3.org/1999/xhtml" class="labelBkg" style="display: table-cell; white-space: nowrap; line-height: 1.5; max-width: 200px; text-align: center;"><span class="edgeLabel"></span></div></foreignObject></g></g><g class="edgeLabel"><g class="label" transform="translate(0, 0)"><foreignObject width="0" height="0"><div xmlns="http://www.w3.org/1999/xhtml" class="labelBkg" style="display: table-cell; white-space: nowrap; line-height: 1.5; max-width: 200px; text-align: center;"><span class="edgeLabel"></span></div></foreignObject></g></g><g class="edgeLabel"><g class="label" transform="translate(0, 0)"><foreignObject width="0" height="0"><div xmlns="http://www.w3.org/1999/xhtml" class="labelBkg" style="display: table-cell; white-space: nowrap; line-height: 1.5; max-width: 200px; text-align: center;"><span class="edgeLabel"></span></div></foreignObject></g></g><g class="edgeLabel"><g class="label" transform="translate(0, 0)"><foreignObject width="0" height="0"><div xmlns="http://www.w3.org/1999/xhtml" class="labelBkg" style="display: table-cell; white-space: nowrap; line-height: 1.5; max-width: 200px; text-align: center;"><span class="edgeLabel"></span></div></foreignObject></g></g><g class="edgeLabel"><g class="label" transform="translate(0, 0)"><foreignObject width="0" height="0"><div xmlns="http://www.w3.org/1999/xhtml" class="labelBkg" style="display: table-cell; white-space: nowrap; line-height: 1.5; max-width: 200px; text-align: center;"><span class="edgeLabel"></span></div></foreignObject></g></g><g class="edgeLabel"><g class="label" transform="translate(0, 0)"><foreignObject width="0" height="0"><div xmlns="http://www.w3.org/1999/xhtml" class="labelBkg" style="display: table-cell; white-space: nowrap; line-height: 1.5; max-width: 200px; text-align: center;"><span class="edgeLabel"></span></div></foreignObject></g></g><g class="edgeLabel"><g class="label" transform="translate(0, 0)"><foreignObject width="0" height="0"><div xmlns="http://www.w3.org/1999/xhtml" class="labelBkg" style="display: table-cell; white-space: nowrap; line-height: 1.5; max-width: 200px; text-align: center;"><span class="edgeLabel"></span></div></foreignObject></g></g><g class="edgeLabel" transform="translate(629.5474533282924, 597.5)"><g class="label" transform="translate(-62.8203125, -12)"><foreignObject width="125.640625" height="24"><div xmlns="http://www.w3.org/1999/xhtml" class="labelBkg" style="display: table-cell; white-space: nowrap; line-height: 1.5; max-width: 200px; text-align: center;"><span class="edgeLabel"><p>товары в образе</p></span></div></foreignObject></g></g><g class="edgeLabel" transform="translate(774.6215470782922, 597.5)"><g class="label" transform="translate(-56.1796875, -12)"><foreignObject width="112.359375" height="24"><div xmlns="http://www.w3.org/1999/xhtml" class="labelBkg" style="display: table-cell; white-space: nowrap; line-height: 1.5; max-width: 200px; text-align: center;"><span class="edgeLabel"><p>рекомендации</p></span></div></foreignObject></g></g><g class="edgeLabel" transform="translate(943.8790627032922, 597.5)"><g class="label" transform="translate(-70.4921875, -12)"><foreignObject width="140.984375" height="24"><div xmlns="http://www.w3.org/1999/xhtml" class="labelBkg" style="display: table-cell; white-space: nowrap; line-height: 1.5; max-width: 200px; text-align: center;"><span class="edgeLabel"><p>переход к покупке</p></span></div></foreignObject></g></g><g class="edgeLabel" transform="translate(457.5552658282923, 597.5)"><g class="label" transform="translate(-91.671875, -12)"><foreignObject width="183.34375" height="24"><div xmlns="http://www.w3.org/1999/xhtml" class="labelBkg" style="display: table-cell; white-space: nowrap; line-height: 1.5; max-width: 200px; text-align: center;"><span class="edgeLabel"><p>показать после покупки</p></span></div></foreignObject></g></g><g class="edgeLabel" transform="translate(1366.3566415188927, 597.5)"><g class="label" transform="translate(-100, -24)"><foreignObject width="200" height="48"><div xmlns="http://www.w3.org/1999/xhtml" class="labelBkg" style="display: table; white-space: break-spaces; line-height: 1.5; max-width: 200px; text-align: center; width: 200px;"><span class="edgeLabel"><p>покупка во время события</p></span></div></foreignObject></g></g></g></svg>